<svg width="50" height="50" viewBox="0 0 50 50" fill="none" xmlns="http://www.w3.org/2000/svg">
<g clip-path="url(#clip0_6_37)">
<path d="M7.6699 19.5631H4.36893C1.95604 19.5631 0 21.5191 0 23.932V50.0485H2.52427V24.9029C2.52427 23.2943 3.8283 21.9903 5.43689 21.9903H7.6699V19.5631Z" fill="#272B38"/>
<path d="M42.233 21.9903H44.5631C46.1717 21.9903 47.4757 23.2943 47.4757 24.9029V50.0485H50V23.932C50 21.5191 48.044 19.5631 45.6311 19.5631H42.233V21.9903Z" fill="#272B38"/>
<rect x="7.57281" y="30.0485" width="34.7573" height="2.52427" fill="#272B38"/>
<path d="M15.1461 11.6019C9.94222 17 9.19141 26.1489 9.46649 30.0485H38.0587C38.0587 23.9903 41.1332 18.0097 42.6704 15.7767C45.583 10.4175 45.9875 3.02589 45.8257 0H16.651C17.8549 6.48544 16.1493 10.4369 15.1461 11.6019Z" fill="#272B38"/>
<rect x="47.5728" y="47.5243" width="2.52427" height="45.0485" transform="rotate(90 47.5728 47.5243)" fill="#272B38"/>
<rect x="14.369" y="36.7476" width="2.52427" height="6.50485" transform="rotate(90 14.369 36.7476)" fill="#272B38"/>
<rect x="24.2719" y="36.7476" width="2.52427" height="6.50485" transform="rotate(90 24.2719 36.7476)" fill="#272B38"/>
<rect x="34.1747" y="36.7476" width="2.52427" height="6.50485" transform="rotate(90 34.1747 36.7476)" fill="#FF284C"/>
</g>
<defs>
<clipPath id="clip0_6_37">
<rect width="50" height="50" fill="white"/>
</clipPath>
</defs>
</svg>
