<svg width="16" height="16" viewBox="0 0 16 16" fill="none" xmlns="http://www.w3.org/2000/svg">
<path fill-rule="evenodd" clip-rule="evenodd" d="M4.57937 0.04675C5.41025 0.00849999 5.67517 0 7.79167 0C9.90817 0 10.1731 0.00920832 11.0033 0.04675C11.8334 0.0842917 12.4001 0.21675 12.8959 0.408708C13.4151 0.604917 13.8862 0.911625 14.2757 1.30829C14.6724 1.69717 14.9784 2.1675 15.1739 2.68742C15.3666 3.18325 15.4983 3.74992 15.5366 4.57867C15.5748 5.41096 15.5833 5.67587 15.5833 7.79167C15.5833 9.90817 15.5741 10.1731 15.5366 11.004C15.499 11.8327 15.3666 12.3994 15.1739 12.8952C14.9784 13.4152 14.6719 13.8863 14.2757 14.2757C13.8862 14.6724 13.4151 14.9784 12.8959 15.1739C12.4001 15.3666 11.8334 15.4983 11.0047 15.5366C10.1731 15.5748 9.90817 15.5833 7.79167 15.5833C5.67517 15.5833 5.41025 15.5741 4.57937 15.5366C3.75063 15.499 3.18396 15.3666 2.68812 15.1739C2.16815 14.9784 1.69704 14.6719 1.30758 14.2757C0.911186 13.8866 0.604431 13.4158 0.408708 12.8959C0.21675 12.4001 0.085 11.8334 0.04675 11.0047C0.00849999 10.1724 0 9.90746 0 7.79167C0 5.67517 0.00920832 5.41025 0.04675 4.58008C0.0842917 3.74992 0.21675 3.18325 0.408708 2.68742C0.60472 2.16756 0.911709 1.69668 1.30829 1.30758C1.6972 0.911272 2.16783 0.604522 2.68742 0.408708C3.18325 0.21675 3.74992 0.085 4.57867 0.04675H4.57937ZM10.9402 1.44925C10.1185 1.41171 9.87204 1.40392 7.79167 1.40392C5.71129 1.40392 5.46479 1.41171 4.64312 1.44925C3.88308 1.48396 3.47083 1.61075 3.196 1.71771C2.83262 1.85937 2.57267 2.02725 2.29996 2.29996C2.04145 2.55145 1.8425 2.85762 1.71771 3.196C1.61075 3.47083 1.48396 3.88308 1.44925 4.64312C1.41171 5.46479 1.40392 5.71129 1.40392 7.79167C1.40392 9.87204 1.41171 10.1185 1.44925 10.9402C1.48396 11.7002 1.61075 12.1125 1.71771 12.3873C1.84237 12.7252 2.04142 13.0319 2.29996 13.2834C2.55142 13.5419 2.85812 13.741 3.196 13.8656C3.47083 13.9726 3.88308 14.0994 4.64312 14.1341C5.46479 14.1716 5.71058 14.1794 7.79167 14.1794C9.87275 14.1794 10.1185 14.1716 10.9402 14.1341C11.7002 14.0994 12.1125 13.9726 12.3873 13.8656C12.7507 13.724 13.0107 13.5561 13.2834 13.2834C13.5419 13.0319 13.741 12.7252 13.8656 12.3873C13.9726 12.1125 14.0994 11.7002 14.1341 10.9402C14.1716 10.1185 14.1794 9.87204 14.1794 7.79167C14.1794 5.71129 14.1716 5.46479 14.1341 4.64312C14.0994 3.88308 13.9726 3.47083 13.8656 3.196C13.724 2.83262 13.5561 2.57267 13.2834 2.29996C13.0319 2.04147 12.7257 1.84252 12.3873 1.71771C12.1125 1.61075 11.7002 1.48396 10.9402 1.44925ZM6.79646 10.1936C7.35226 10.425 7.97114 10.4562 8.54741 10.282C9.12367 10.1077 9.62157 9.73882 9.95606 9.23826C10.2905 8.73769 10.4409 8.13653 10.3814 7.53745C10.3219 6.93836 10.0562 6.37852 9.62979 5.95354C9.35796 5.68188 9.02927 5.47387 8.6674 5.34448C8.30553 5.21509 7.91947 5.16755 7.53702 5.20527C7.15456 5.24299 6.78523 5.36504 6.45561 5.56263C6.12599 5.76023 5.84428 6.02844 5.63076 6.34798C5.41723 6.66751 5.27722 7.03041 5.22078 7.41056C5.16435 7.7907 5.1929 8.17862 5.30438 8.54641C5.41587 8.91419 5.60751 9.25268 5.86551 9.53751C6.12351 9.82234 6.44146 10.0464 6.79646 10.1936ZM4.95975 4.95975C5.33164 4.58786 5.77314 4.29286 6.25904 4.09159C6.74495 3.89032 7.26573 3.78673 7.79167 3.78673C8.3176 3.78673 8.83839 3.89032 9.32429 4.09159C9.81019 4.29286 10.2517 4.58786 10.6236 4.95975C10.9955 5.33164 11.2905 5.77314 11.4917 6.25904C11.693 6.74495 11.7966 7.26573 11.7966 7.79167C11.7966 8.3176 11.693 8.83839 11.4917 9.32429C11.2905 9.81019 10.9955 10.2517 10.6236 10.6236C9.87251 11.3747 8.85384 11.7966 7.79167 11.7966C6.72949 11.7966 5.71082 11.3747 4.95975 10.6236C4.20868 9.87251 3.78673 8.85384 3.78673 7.79167C3.78673 6.72949 4.20868 5.71082 4.95975 4.95975ZM12.6848 4.38317C12.777 4.29623 12.8508 4.19169 12.9018 4.07573C12.9528 3.95977 12.9801 3.83475 12.9819 3.70808C12.9838 3.5814 12.9602 3.45564 12.9125 3.33824C12.8649 3.22084 12.7942 3.11419 12.7046 3.02461C12.6151 2.93503 12.5084 2.86433 12.391 2.8167C12.2736 2.76907 12.1479 2.74548 12.0212 2.74733C11.8945 2.74918 11.7695 2.77642 11.6535 2.82745C11.5376 2.87848 11.433 2.95226 11.3461 3.04442C11.177 3.22365 11.0844 3.46171 11.088 3.70808C11.0916 3.95444 11.1911 4.18971 11.3653 4.36393C11.5395 4.53815 11.7748 4.63762 12.0212 4.64121C12.2675 4.6448 12.5056 4.55224 12.6848 4.38317Z" fill="white"/>
</svg>
