<svg width="18" height="18" viewBox="0 0 18 18" fill="none" xmlns="http://www.w3.org/2000/svg">
<path fill-rule="evenodd" clip-rule="evenodd" d="M14.8694 3.16361C14.1071 2.39625 13.2 1.7878 12.2009 1.3735C11.2017 0.959193 10.1302 0.747277 9.04858 0.750026C4.51292 0.750026 0.820583 4.44144 0.81875 8.97894C0.81875 10.4291 1.19733 11.8444 1.91692 13.0929L0.75 17.3564L5.11242 16.2114C6.31911 16.8683 7.67102 17.2128 9.04492 17.2134H9.04858C13.5833 17.2134 17.2757 13.5219 17.2775 8.98444C17.2806 7.90322 17.0694 6.8321 16.6561 5.833C16.2427 4.83389 15.6355 3.92662 14.8694 3.16361ZM9.04858 15.8246H9.04583C7.82072 15.8247 6.61816 15.4951 5.56433 14.8704L5.315 14.7219L2.72633 15.4011L3.41658 12.8775L3.25433 12.619C2.56939 11.5286 2.2068 10.2667 2.20842 8.97894C2.21025 5.20778 5.27833 2.13969 9.05133 2.13969C9.9499 2.1377 10.8399 2.31393 11.6699 2.65821C12.4999 3.00248 13.2534 3.50795 13.8867 4.14536C14.5235 4.77973 15.0282 5.53401 15.3716 6.36461C15.7151 7.1952 15.8906 8.08564 15.8878 8.98444C15.886 12.7556 12.8179 15.8246 9.04858 15.8246ZM12.8005 10.7014C12.5942 10.5978 11.5841 10.1009 11.3953 10.0322C11.2073 9.96344 11.0708 9.92953 10.9333 10.1349C10.7958 10.3402 10.4016 10.8031 10.2815 10.9406C10.1614 11.0781 10.0413 11.0946 9.836 10.9919C9.63067 10.8893 8.96792 10.672 8.18233 9.97169C7.57092 9.42628 7.15842 8.75344 7.03833 8.54719C6.91825 8.34094 7.0255 8.23003 7.12908 8.12736C7.22167 8.03569 7.33442 7.88719 7.43708 7.76711C7.53975 7.64703 7.57367 7.56178 7.64242 7.42428C7.71117 7.28678 7.67725 7.16669 7.625 7.06402C7.57367 6.96044 7.16208 5.94844 6.99067 5.53686C6.82475 5.13811 6.65517 5.19128 6.52867 5.18578C6.39765 5.18042 6.26654 5.17797 6.13542 5.17844C6.03115 5.1811 5.92856 5.20527 5.83407 5.24944C5.73959 5.2936 5.65524 5.35682 5.58633 5.43511C5.3975 5.64136 4.86675 6.13819 4.86675 7.15019C4.86675 8.16219 5.60375 9.14028 5.70642 9.27778C5.80908 9.41528 7.15658 11.4915 9.21908 12.3825C9.71042 12.5943 10.0936 12.7208 10.3915 12.8161C10.8837 12.9729 11.332 12.9499 11.6868 12.8977C12.0818 12.839 12.9032 12.4009 13.0746 11.9205C13.246 11.4402 13.246 11.0286 13.1947 10.9424C13.1433 10.8563 13.0049 10.804 12.8005 10.7014Z" fill="white"/>
</svg>
